<svg id="my-svg" width="100%" xmlns="http://www.w3.org/2000/svg" xmlns:xlink="http://www.w3.org/1999/xlink" class="statediagram" style="max-width: 890.625px; background-color: white;" viewBox="0 0 890.625 1888" role="graphics-document document" aria-roledescription="stateDiagram"><style>#my-svg{font-family:"trebuchet ms",verdana,arial,sans-serif;font-size:16px;fill:#333;}@keyframes edge-animation-frame{from{stroke-dashoffset:0;}}@keyframes dash{to{stroke-dashoffset:0;}}#my-svg .edge-animation-slow{stroke-dasharray:9,5!important;stroke-dashoffset:900;animation:dash 50s linear infinite;stroke-linecap:round;}#my-svg .edge-animation-fast{stroke-dasharray:9,5!important;stroke-dashoffset:900;animation:dash 20s linear infinite;stroke-linecap:round;}#my-svg .error-icon{fill:#552222;}#my-svg .error-text{fill:#552222;stroke:#552222;}#my-svg .edge-thickness-normal{stroke-width:1px;}#my-svg .edge-thickness-thick{stroke-width:3.5px;}#my-svg .edge-pattern-solid{stroke-dasharray:0;}#my-svg .edge-thickness-invisible{stroke-width:0;fill:none;}#my-svg .edge-pattern-dashed{stroke-dasharray:3;}#my-svg .edge-pattern-dotted{stroke-dasharray:2;}#my-svg .marker{fill:#333333;stroke:#333333;}#my-svg .marker.cross{stroke:#333333;}#my-svg svg{font-family:"trebuchet ms",verdana,arial,sans-serif;font-size:16px;}#my-svg p{margin:0;}#my-svg defs [id$="-barbEnd"]{fill:#333333;stroke:#333333;}#my-svg g.stateGroup text{fill:#9370DB;stroke:none;font-size:10px;}#my-svg g.stateGroup text{fill:#333;stroke:none;font-size:10px;}#my-svg g.stateGroup .state-title{font-weight:bolder;fill:#131300;}#my-svg g.stateGroup rect{fill:#ECECFF;stroke:#9370DB;}#my-svg g.stateGroup line{stroke:#333333;stroke-width:1;}#my-svg .transition{stroke:#333333;stroke-width:1;fill:none;}#my-svg .stateGroup .composit{fill:white;border-bottom:1px;}#my-svg .stateGroup .alt-composit{fill:#e0e0e0;border-bottom:1px;}#my-svg .state-note{stroke:#aaaa33;fill:#fff5ad;}#my-svg .state-note text{fill:black;stroke:none;font-size:10px;}#my-svg .stateLabel .box{stroke:none;stroke-width:0;fill:#ECECFF;opacity:0.5;}#my-svg .edgeLabel .label rect{fill:#ECECFF;opacity:0.5;}#my-svg .edgeLabel{background-color:rgba(232,232,232, 0.8);text-align:center;}#my-svg .edgeLabel p{background-color:rgba(232,232,232, 0.8);}#my-svg .edgeLabel rect{opacity:0.5;background-color:rgba(232,232,232, 0.8);fill:rgba(232,232,232, 0.8);}#my-svg .edgeLabel .label text{fill:#333;}#my-svg .label div .edgeLabel{color:#333;}#my-svg .stateLabel text{fill:#131300;font-size:10px;font-weight:bold;}#my-svg .node circle.state-start{fill:#333333;stroke:#333333;}#my-svg .node .fork-join{fill:#333333;stroke:#333333;}#my-svg .node circle.state-end{fill:#9370DB;stroke:white;stroke-width:1.5;}#my-svg .end-state-inner{fill:white;stroke-width:1.5;}#my-svg .node rect{fill:#ECECFF;stroke:#9370DB;stroke-width:1px;}#my-svg .node polygon{fill:#ECECFF;stroke:#9370DB;stroke-width:1px;}#my-svg [id$="-barbEnd"]{fill:#333333;}#my-svg .statediagram-cluster rect{fill:#ECECFF;stroke:#9370DB;stroke-width:1px;}#my-svg .cluster-label,#my-svg .nodeLabel{color:#131300;}#my-svg .statediagram-cluster rect.outer{rx:5px;ry:5px;}#my-svg .statediagram-state .divider{stroke:#9370DB;}#my-svg .statediagram-state .title-state{rx:5px;ry:5px;}#my-svg .statediagram-cluster.statediagram-cluster .inner{fill:white;}#my-svg .statediagram-cluster.statediagram-cluster-alt .inner{fill:#f0f0f0;}#my-svg .statediagram-cluster .inner{rx:0;ry:0;}#my-svg .statediagram-state rect.basic{rx:5px;ry:5px;}#my-svg .statediagram-state rect.divider{stroke-dasharray:10,10;fill:#f0f0f0;}#my-svg .note-edge{stroke-dasharray:5;}#my-svg .statediagram-note rect{fill:#fff5ad;stroke:#aaaa33;stroke-width:1px;rx:0;ry:0;}#my-svg .statediagram-note rect{fill:#fff5ad;stroke:#aaaa33;stroke-width:1px;rx:0;ry:0;}#my-svg .statediagram-note text{fill:black;}#my-svg .statediagram-note .nodeLabel{color:black;}#my-svg .statediagram .edgeLabel{color:red;}#my-svg [id$="-dependencyStart"],#my-svg [id$="-dependencyEnd"]{fill:#333333;stroke:#333333;stroke-width:1;}#my-svg .statediagramTitleText{text-anchor:middle;font-size:18px;fill:#333;}#my-svg [data-look="neo"].statediagram-cluster rect{fill:#ECECFF;stroke:#9370DB;stroke-width:1;}#my-svg [data-look="neo"].statediagram-cluster rect.outer{rx:5px;ry:5px;filter:drop-shadow(1px 2px 2px rgba(185, 185, 185, 1));}#my-svg .node .neo-node{stroke:#9370DB;}#my-svg [data-look="neo"].node rect,#my-svg [data-look="neo"].cluster rect,#my-svg [data-look="neo"].node polygon{stroke:#9370DB;filter:drop-shadow(1px 2px 2px rgba(185, 185, 185, 1));}#my-svg [data-look="neo"].node path{stroke:#9370DB;stroke-width:1px;}#my-svg [data-look="neo"].node .outer-path{filter:drop-shadow(1px 2px 2px rgba(185, 185, 185, 1));}#my-svg [data-look="neo"].node .neo-line path{stroke:#9370DB;filter:none;}#my-svg [data-look="neo"].node circle{stroke:#9370DB;filter:drop-shadow(1px 2px 2px rgba(185, 185, 185, 1));}#my-svg [data-look="neo"].node circle .state-start{fill:#000000;}#my-svg [data-look="neo"].icon-shape .icon{fill:#9370DB;filter:drop-shadow(1px 2px 2px rgba(185, 185, 185, 1));}#my-svg [data-look="neo"].icon-shape .icon-neo path{stroke:#9370DB;filter:drop-shadow(1px 2px 2px rgba(185, 185, 185, 1));}#my-svg :root{--mermaid-font-family:"trebuchet ms",verdana,arial,sans-serif;}</style><g><defs><marker id="my-svg_stateDiagram-barbEnd" refX="19" refY="7" markerWidth="20" markerHeight="14" markerUnits="userSpaceOnUse" orient="auto"><path d="M 19,7 L9,13 L14,7 L9,1 Z"/></marker></defs><g class="root"><g class="clusters"/><g class="edgePaths"><path d="M701.258,22L701.258,26.167C701.258,30.333,701.258,38.667,701.258,47C701.258,55.333,701.258,63.667,701.258,67.833L701.258,72" id="my-svg-edge0" class="edge-thickness-normal edge-pattern-solid transition" style="fill:none;;;fill:none" data-edge="true" data-et="edge" data-id="edge0" data-points="W3sieCI6NzAxLjI1NzgxMjUsInkiOjIyfSx7IngiOjcwMS4yNTc4MTI1LCJ5Ijo0N30seyJ4Ijo3MDEuMjU3ODEyNSwieSI6NzJ9XQ==" data-look="classic" marker-end="url(#my-svg_stateDiagram-barbEnd)"/><path d="M701.258,112L701.258,118.167C701.258,124.333,701.258,136.667,701.258,149C701.258,161.333,701.258,173.667,701.258,179.833L701.258,186" id="my-svg-edge1" class="edge-thickness-normal edge-pattern-solid transition" style="fill:none;;;fill:none" data-edge="true" data-et="edge" data-id="edge1" data-points="W3sieCI6NzAxLjI1NzgxMjUsInkiOjExMn0seyJ4Ijo3MDEuMjU3ODEyNSwieSI6MTQ5fSx7IngiOjcwMS4yNTc4MTI1LCJ5IjoxODZ9XQ==" data-look="classic" marker-end="url(#my-svg_stateDiagram-barbEnd)"/><path d="M701.258,226L701.258,234.167C701.258,242.333,701.258,258.667,701.258,275C701.258,291.333,701.258,307.667,701.258,315.833L701.258,324" id="my-svg-edge2" class="edge-thickness-normal edge-pattern-solid transition" style="fill:none;;;fill:none" data-edge="true" data-et="edge" data-id="edge2" data-points="W3sieCI6NzAxLjI1NzgxMjUsInkiOjIyNn0seyJ4Ijo3MDEuMjU3ODEyNSwieSI6Mjc1fSx7IngiOjcwMS4yNTc4MTI1LCJ5IjozMjR9XQ==" data-look="classic" marker-end="url(#my-svg_stateDiagram-barbEnd)"/><path d="M701.258,364L701.258,370.167C701.258,376.333,701.258,388.667,701.258,401C701.258,413.333,701.258,425.667,701.258,431.833L701.258,438" id="my-svg-edge3" class="edge-thickness-normal edge-pattern-solid transition" style="fill:none;;;fill:none" data-edge="true" data-et="edge" data-id="edge3" data-points="W3sieCI6NzAxLjI1NzgxMjUsInkiOjM2NH0seyJ4Ijo3MDEuMjU3ODEyNSwieSI6NDAxfSx7IngiOjcwMS4yNTc4MTI1LCJ5Ijo0Mzh9XQ==" data-look="classic" marker-end="url(#my-svg_stateDiagram-barbEnd)"/><path d="M661.992,461.731L568.56,470.609C475.128,479.487,288.263,497.244,194.831,515.622C101.398,534,101.398,553,101.398,572C101.398,591,101.398,610,101.398,629C101.398,648,101.398,667,101.398,684C101.398,701,101.398,716,101.398,731C101.398,746,101.398,761,101.398,776C101.398,791,101.398,806,101.398,821C101.398,836,101.398,851,101.398,870C101.398,889,101.398,912,101.398,935C101.398,958,101.398,981,101.398,1002C101.398,1023,101.398,1042,101.398,1061C101.398,1080,101.398,1099,101.398,1118C101.398,1137,101.398,1156,101.398,1175C101.398,1194,101.398,1213,101.398,1230C101.398,1247,101.398,1262,101.398,1277C101.398,1292,101.398,1307,101.398,1322C101.398,1337,101.398,1352,101.398,1367C101.398,1382,101.398,1397,101.398,1412C101.398,1427,101.398,1442,101.398,1453.667C101.398,1465.333,101.398,1473.667,101.398,1477.833L101.398,1482" id="my-svg-edge4" class="edge-thickness-normal edge-pattern-solid transition" style="fill:none;;;fill:none" data-edge="true" data-et="edge" data-id="edge4" data-points="W3sieCI6NjYxLjk5MjE4NzUsInkiOjQ2MS43MzExMDg4NTM2Mzc2fSx7IngiOjEwMS4zOTg0Mzc1LCJ5Ijo1MTV9LHsieCI6MTAxLjM5ODQzNzUsInkiOjU3Mn0seyJ4IjoxMDEuMzk4NDM3NSwieSI6NjI5fSx7IngiOjEwMS4zOTg0Mzc1LCJ5Ijo2ODZ9LHsieCI6MTAxLjM5ODQzNzUsInkiOjczMX0seyJ4IjoxMDEuMzk4NDM3NSwieSI6Nzc2fSx7IngiOjEwMS4zOTg0Mzc1LCJ5Ijo4MjF9LHsieCI6MTAxLjM5ODQzNzUsInkiOjg2Nn0seyJ4IjoxMDEuMzk4NDM3NSwieSI6OTM1fSx7IngiOjEwMS4zOTg0Mzc1LCJ5IjoxMDA0fSx7IngiOjEwMS4zOTg0Mzc1LCJ5IjoxMDYxfSx7IngiOjEwMS4zOTg0Mzc1LCJ5IjoxMTE4fSx7IngiOjEwMS4zOTg0Mzc1LCJ5IjoxMTc1fSx7IngiOjEwMS4zOTg0Mzc1LCJ5IjoxMjMyfSx7IngiOjEwMS4zOTg0Mzc1LCJ5IjoxMjc3fSx7IngiOjEwMS4zOTg0Mzc1LCJ5IjoxMzIyfSx7IngiOjEwMS4zOTg0Mzc1LCJ5IjoxMzY3fSx7IngiOjEwMS4zOTg0Mzc1LCJ5IjoxNDEyfSx7IngiOjEwMS4zOTg0Mzc1LCJ5IjoxNDU3fSx7IngiOjEwMS4zOTg0Mzc1LCJ5IjoxNDgyfV0=" data-look="classic" marker-end="url(#my-svg_stateDiagram-barbEnd)"/><path d="M101.398,1522L101.398,1526.167C101.398,1530.333,101.398,1538.667,129.054,1548.555C156.71,1558.443,212.021,1569.885,239.676,1575.607L267.332,1581.328" id="my-svg-edge5" class="edge-thickness-normal edge-pattern-solid transition" style="fill:none;;;fill:none" data-edge="true" data-et="edge" data-id="edge5" data-points="W3sieCI6MTAxLjM5ODQzNzUsInkiOjE1MjJ9LHsieCI6MTAxLjM5ODQzNzUsInkiOjE1NDd9LHsieCI6MjY3LjMzMjAzMTI1LCJ5IjoxNTgxLjMyODAwNTc0NjYxMDR9XQ==" data-look="classic" marker-end="url(#my-svg_stateDiagram-barbEnd)"/><path d="M661.992,466.316L623.68,474.43C585.367,482.544,508.742,498.772,470.43,513.053C432.117,527.333,432.117,539.667,432.117,545.833L432.117,552" id="my-svg-edge6" class="edge-thickness-normal edge-pattern-solid transition" style="fill:none;;;fill:none" data-edge="true" data-et="edge" data-id="edge6" data-points="W3sieCI6NjYxLjk5MjE4NzUsInkiOjQ2Ni4zMTU4NzgwODQxOH0seyJ4Ijo0MzIuMTE3MTg3NSwieSI6NTE1fSx7IngiOjQzMi4xMTcxODc1LCJ5Ijo1NTJ9XQ==" data-look="classic" marker-end="url(#my-svg_stateDiagram-barbEnd)"/><path d="M390.201,592L377.277,598.167C364.353,604.333,338.505,616.667,325.58,632.333C312.656,648,312.656,667,312.656,684C312.656,701,312.656,716,312.656,731C312.656,746,312.656,761,312.656,776C312.656,791,312.656,806,312.656,821C312.656,836,312.656,851,312.656,870C312.656,889,312.656,912,312.656,935C312.656,958,312.656,981,312.656,1002C312.656,1023,312.656,1042,312.656,1061C312.656,1080,312.656,1099,312.656,1118C312.656,1137,312.656,1156,312.656,1175C312.656,1194,312.656,1213,312.656,1230C312.656,1247,312.656,1262,312.656,1277C312.656,1292,312.656,1307,312.656,1322C312.656,1337,312.656,1352,312.656,1367C312.656,1382,312.656,1397,312.656,1412C312.656,1427,312.656,1442,312.656,1453.667C312.656,1465.333,312.656,1473.667,312.656,1477.833L312.656,1482" id="my-svg-edge7" class="edge-thickness-normal edge-pattern-solid transition" style="fill:none;;;fill:none" data-edge="true" data-et="edge" data-id="edge7" data-points="W3sieCI6MzkwLjIwMTA2OTA3ODk0NzQsInkiOjU5Mn0seyJ4IjozMTIuNjU2MjUsInkiOjYyOX0seyJ4IjozMTIuNjU2MjUsInkiOjY4Nn0seyJ4IjozMTIuNjU2MjUsInkiOjczMX0seyJ4IjozMTIuNjU2MjUsInkiOjc3Nn0seyJ4IjozMTIuNjU2MjUsInkiOjgyMX0seyJ4IjozMTIuNjU2MjUsInkiOjg2Nn0seyJ4IjozMTIuNjU2MjUsInkiOjkzNX0seyJ4IjozMTIuNjU2MjUsInkiOjEwMDR9LHsieCI6MzEyLjY1NjI1LCJ5IjoxMDYxfSx7IngiOjMxMi42NTYyNSwieSI6MTExOH0seyJ4IjozMTIuNjU2MjUsInkiOjExNzV9LHsieCI6MzEyLjY1NjI1LCJ5IjoxMjMyfSx7IngiOjMxMi42NTYyNSwieSI6MTI3N30seyJ4IjozMTIuNjU2MjUsInkiOjEzMjJ9LHsieCI6MzEyLjY1NjI1LCJ5IjoxMzY3fSx7IngiOjMxMi42NTYyNSwieSI6MTQxMn0seyJ4IjozMTIuNjU2MjUsInkiOjE0NTd9LHsieCI6MzEyLjY1NjI1LCJ5IjoxNDgyfV0=" data-look="classic" marker-end="url(#my-svg_stateDiagram-barbEnd)"/><path d="M312.656,1522L312.656,1526.167C312.656,1530.333,312.656,1538.667,313.236,1547C313.816,1555.333,314.975,1563.667,315.555,1567.833L316.135,1572" id="my-svg-edge8" class="edge-thickness-normal edge-pattern-solid transition" style="fill:none;;;fill:none" data-edge="true" data-et="edge" data-id="edge8" data-points="W3sieCI6MzEyLjY1NjI1LCJ5IjoxNTIyfSx7IngiOjMxMi42NTYyNSwieSI6MTU0N30seyJ4IjozMTYuMTM0OTgyNjM4ODg4OSwieSI6MTU3Mn1d" data-look="classic" marker-end="url(#my-svg_stateDiagram-barbEnd)"/><path d="M465.8,592L476.186,598.167C486.571,604.333,507.342,616.667,517.728,629C528.113,641.333,528.113,653.667,528.113,659.833L528.113,666" id="my-svg-edge9" class="edge-thickness-normal edge-pattern-solid transition" style="fill:none;;;fill:none" data-edge="true" data-et="edge" data-id="edge9" data-points="W3sieCI6NDY1LjgwMDAyNzQxMjI4MDcsInkiOjU5Mn0seyJ4Ijo1MjguMTEzMjgxMjUsInkiOjYyOX0seyJ4Ijo1MjguMTEzMjgxMjUsInkiOjY2Nn1d" data-look="classic" marker-end="url(#my-svg_stateDiagram-barbEnd)"/><path d="M528.113,706L528.113,710.167C528.113,714.333,528.113,722.667,528.113,731C528.113,739.333,528.113,747.667,528.113,751.833L528.113,756" id="my-svg-edge10" class="edge-thickness-normal edge-pattern-solid transition" style="fill:none;;;fill:none" data-edge="true" data-et="edge" data-id="edge10" data-points="W3sieCI6NTI4LjExMzI4MTI1LCJ5Ijo3MDZ9LHsieCI6NTI4LjExMzI4MTI1LCJ5Ijo3MzF9LHsieCI6NTI4LjExMzI4MTI1LCJ5Ijo3NTZ9XQ==" data-look="classic" marker-end="url(#my-svg_stateDiagram-barbEnd)"/><path d="M528.113,796L528.113,800.167C528.113,804.333,528.113,812.667,528.113,821C528.113,829.333,528.113,837.667,528.113,841.833L528.113,846" id="my-svg-edge11" class="edge-thickness-normal edge-pattern-solid transition" style="fill:none;;;fill:none" data-edge="true" data-et="edge" data-id="edge11" data-points="W3sieCI6NTI4LjExMzI4MTI1LCJ5Ijo3OTZ9LHsieCI6NTI4LjExMzI4MTI1LCJ5Ijo4MjF9LHsieCI6NTI4LjExMzI4MTI1LCJ5Ijo4NDZ9XQ==" data-look="classic" marker-end="url(#my-svg_stateDiagram-barbEnd)"/><path d="M512.693,886L506.397,894.167C500.1,902.333,487.507,918.667,481.211,935C474.914,951.333,474.914,967.667,474.914,975.833L474.914,984" id="my-svg-edge12" class="edge-thickness-normal edge-pattern-solid transition" style="fill:none;;;fill:none" data-edge="true" data-et="edge" data-id="edge12" data-points="W3sieCI6NTEyLjY5MzIxNzg0NDIwMjksInkiOjg4Nn0seyJ4Ijo0NzQuOTE0MDYyNSwieSI6OTM1fSx7IngiOjQ3NC45MTQwNjI1LCJ5Ijo5ODR9XQ==" data-look="classic" marker-end="url(#my-svg_stateDiagram-barbEnd)"/><path d="M474.914,1024L474.914,1030.167C474.914,1036.333,474.914,1048.667,480.67,1061C486.425,1073.333,497.936,1085.667,503.691,1091.833L509.447,1098" id="my-svg-edge13" class="edge-thickness-normal edge-pattern-solid transition" style="fill:none;;;fill:none" data-edge="true" data-et="edge" data-id="edge13" data-points="W3sieCI6NDc0LjkxNDA2MjUsInkiOjEwMjR9LHsieCI6NDc0LjkxNDA2MjUsInkiOjEwNjF9LHsieCI6NTA5LjQ0Njg4ODcwNjE0MDMsInkiOjEwOTh9XQ==" data-look="classic" marker-end="url(#my-svg_stateDiagram-barbEnd)"/><path d="M549.688,886L558.498,894.167C567.308,902.333,584.927,918.667,593.737,938.333C602.547,958,602.547,981,602.547,1002C602.547,1023,602.547,1042,594.494,1057.667C586.441,1073.333,570.336,1085.667,562.283,1091.833L554.23,1098" id="my-svg-edge14" class="edge-thickness-normal edge-pattern-solid transition" style="fill:none;;;fill:none" data-edge="true" data-et="edge" data-id="edge14" data-points="W3sieCI6NTQ5LjY4ODIzNTk2MDE0NDksInkiOjg4Nn0seyJ4Ijo2MDIuNTQ2ODc1LCJ5Ijo5MzV9LHsieCI6NjAyLjU0Njg3NSwieSI6MTAwNH0seyJ4Ijo2MDIuNTQ2ODc1LCJ5IjoxMDYxfSx7IngiOjU1NC4yMzAzMzE2ODg1OTY1LCJ5IjoxMDk4fV0=" data-look="classic" marker-end="url(#my-svg_stateDiagram-barbEnd)"/><path d="M528.113,1138L528.113,1144.167C528.113,1150.333,528.113,1162.667,528.113,1175C528.113,1187.333,528.113,1199.667,528.113,1205.833L528.113,1212" id="my-svg-edge15" class="edge-thickness-normal edge-pattern-solid transition" style="fill:none;;;fill:none" data-edge="true" data-et="edge" data-id="edge15" data-points="W3sieCI6NTI4LjExMzI4MTI1LCJ5IjoxMTM4fSx7IngiOjUyOC4xMTMyODEyNSwieSI6MTE3NX0seyJ4Ijo1MjguMTEzMjgxMjUsInkiOjEyMTJ9XQ==" data-look="classic" marker-end="url(#my-svg_stateDiagram-barbEnd)"/><path d="M528.113,1252L528.113,1256.167C528.113,1260.333,528.113,1268.667,528.113,1277C528.113,1285.333,528.113,1293.667,528.113,1297.833L528.113,1302" id="my-svg-edge16" class="edge-thickness-normal edge-pattern-solid transition" style="fill:none;;;fill:none" data-edge="true" data-et="edge" data-id="edge16" data-points="W3sieCI6NTI4LjExMzI4MTI1LCJ5IjoxMjUyfSx7IngiOjUyOC4xMTMyODEyNSwieSI6MTI3N30seyJ4Ijo1MjguMTEzMjgxMjUsInkiOjEzMDJ9XQ==" data-look="classic" marker-end="url(#my-svg_stateDiagram-barbEnd)"/><path d="M528.113,1342L528.113,1346.167C528.113,1350.333,528.113,1358.667,528.113,1367C528.113,1375.333,528.113,1383.667,528.113,1387.833L528.113,1392" id="my-svg-edge17" class="edge-thickness-normal edge-pattern-solid transition" style="fill:none;;;fill:none" data-edge="true" data-et="edge" data-id="edge17" data-points="W3sieCI6NTI4LjExMzI4MTI1LCJ5IjoxMzQyfSx7IngiOjUyOC4xMTMyODEyNSwieSI6MTM2N30seyJ4Ijo1MjguMTEzMjgxMjUsInkiOjEzOTJ9XQ==" data-look="classic" marker-end="url(#my-svg_stateDiagram-barbEnd)"/><path d="M528.113,1432L528.113,1436.167C528.113,1440.333,528.113,1448.667,528.113,1457C528.113,1465.333,528.113,1473.667,528.113,1477.833L528.113,1482" id="my-svg-edge18" class="edge-thickness-normal edge-pattern-solid transition" style="fill:none;;;fill:none" data-edge="true" data-et="edge" data-id="edge18" data-points="W3sieCI6NTI4LjExMzI4MTI1LCJ5IjoxNDMyfSx7IngiOjUyOC4xMTMyODEyNSwieSI6MTQ1N30seyJ4Ijo1MjguMTEzMjgxMjUsInkiOjE0ODJ9XQ==" data-look="classic" marker-end="url(#my-svg_stateDiagram-barbEnd)"/><path d="M528.113,1522L528.113,1526.167C528.113,1530.333,528.113,1538.667,501.845,1548.484C475.577,1558.301,423.04,1569.602,396.772,1575.253L370.504,1580.903" id="my-svg-edge19" class="edge-thickness-normal edge-pattern-solid transition" style="fill:none;;;fill:none" data-edge="true" data-et="edge" data-id="edge19" data-points="W3sieCI6NTI4LjExMzI4MTI1LCJ5IjoxNTIyfSx7IngiOjUyOC4xMTMyODEyNSwieSI6MTU0N30seyJ4IjozNzAuNTAzOTA2MjUsInkiOjE1ODAuOTAzMzQ5ODg5ODMxfV0=" data-look="classic" marker-end="url(#my-svg_stateDiagram-barbEnd)"/><path d="M318.918,1612L318.918,1616.167C318.918,1620.333,318.918,1628.667,377.442,1639.581C435.966,1650.496,553.014,1663.991,611.538,1670.739L670.063,1677.487" id="my-svg-edge20" class="edge-thickness-normal edge-pattern-solid transition" style="fill:none;;;fill:none" data-edge="true" data-et="edge" data-id="edge20" data-points="W3sieCI6MzE4LjkxNzk2ODc1LCJ5IjoxNjEyfSx7IngiOjMxOC45MTc5Njg3NSwieSI6MTYzN30seyJ4Ijo2NzAuMDYyNSwieSI6MTY3Ny40ODcwNzM3NTQxNjYyfV0=" data-look="classic" marker-end="url(#my-svg_stateDiagram-barbEnd)"/><path d="M743.391,1662L750.513,1657.833C757.635,1653.667,771.88,1645.333,779.003,1633.667C786.125,1622,786.125,1607,786.125,1592C786.125,1577,786.125,1562,786.125,1547C786.125,1532,786.125,1517,786.125,1502C786.125,1487,786.125,1472,786.125,1457C786.125,1442,786.125,1427,786.125,1412C786.125,1397,786.125,1382,786.125,1367C786.125,1352,786.125,1337,786.125,1322C786.125,1307,786.125,1292,786.125,1277C786.125,1262,786.125,1247,786.125,1230C786.125,1213,786.125,1194,786.125,1175C786.125,1156,786.125,1137,786.125,1118C786.125,1099,786.125,1080,786.125,1061C786.125,1042,786.125,1023,786.125,1002C786.125,981,786.125,958,786.125,935C786.125,912,786.125,889,786.125,870C786.125,851,786.125,836,786.125,821C786.125,806,786.125,791,786.125,776C786.125,761,786.125,746,786.125,731C786.125,716,786.125,701,786.125,684C786.125,667,786.125,648,786.125,629C786.125,610,786.125,591,786.125,572C786.125,553,786.125,534,776.943,518.333C767.762,502.667,749.399,490.333,740.217,484.167L731.036,478" id="my-svg-edge21" class="edge-thickness-normal edge-pattern-solid transition" style="fill:none;;;fill:none" data-edge="true" data-et="edge" data-id="edge21" data-points="W3sieCI6NzQzLjM5MDYyNSwieSI6MTY2Mn0seyJ4Ijo3ODYuMTI1LCJ5IjoxNjM3fSx7IngiOjc4Ni4xMjUsInkiOjE1OTJ9LHsieCI6Nzg2LjEyNSwieSI6MTU0N30seyJ4Ijo3ODYuMTI1LCJ5IjoxNTAyfSx7IngiOjc4Ni4xMjUsInkiOjE0NTd9LHsieCI6Nzg2LjEyNSwieSI6MTQxMn0seyJ4Ijo3ODYuMTI1LCJ5IjoxMzY3fSx7IngiOjc4Ni4xMjUsInkiOjEzMjJ9LHsieCI6Nzg2LjEyNSwieSI6MTI3N30seyJ4Ijo3ODYuMTI1LCJ5IjoxMjMyfSx7IngiOjc4Ni4xMjUsInkiOjExNzV9LHsieCI6Nzg2LjEyNSwieSI6MTExOH0seyJ4Ijo3ODYuMTI1LCJ5IjoxMDYxfSx7IngiOjc4Ni4xMjUsInkiOjEwMDR9LHsieCI6Nzg2LjEyNSwieSI6OTM1fSx7IngiOjc4Ni4xMjUsInkiOjg2Nn0seyJ4Ijo3ODYuMTI1LCJ5Ijo4MjF9LHsieCI6Nzg2LjEyNSwieSI6Nzc2fSx7IngiOjc4Ni4xMjUsInkiOjczMX0seyJ4Ijo3ODYuMTI1LCJ5Ijo2ODZ9LHsieCI6Nzg2LjEyNSwieSI6NjI5fSx7IngiOjc4Ni4xMjUsInkiOjU3Mn0seyJ4Ijo3ODYuMTI1LCJ5Ijo1MTV9LHsieCI6NzMxLjAzNTc3MzAyNjMxNTgsInkiOjQ3OH1d" data-look="classic" marker-end="url(#my-svg_stateDiagram-barbEnd)"/><path d="M709.203,1702L709.203,1708.167C709.203,1714.333,709.203,1726.667,716.515,1739C723.827,1751.333,738.451,1763.667,745.763,1769.833L753.075,1776" id="my-svg-edge22" class="edge-thickness-normal edge-pattern-solid transition" style="fill:none;;;fill:none" data-edge="true" data-et="edge" data-id="edge22" data-points="W3sieCI6NzA5LjIwMzEyNSwieSI6MTcwMn0seyJ4Ijo3MDkuMjAzMTI1LCJ5IjoxNzM5fSx7IngiOjc1My4wNzQ2OTg0NjQ5MTIzLCJ5IjoxNzc2fV0=" data-look="classic" marker-end="url(#my-svg_stateDiagram-barbEnd)"/><path d="M740.523,473.639L757.832,480.532C775.141,487.426,809.758,501.213,827.066,517.606C844.375,534,844.375,553,844.375,572C844.375,591,844.375,610,844.375,629C844.375,648,844.375,667,844.375,684C844.375,701,844.375,716,844.375,731C844.375,746,844.375,761,844.375,776C844.375,791,844.375,806,844.375,821C844.375,836,844.375,851,844.375,870C844.375,889,844.375,912,844.375,935C844.375,958,844.375,981,844.375,1002C844.375,1023,844.375,1042,844.375,1061C844.375,1080,844.375,1099,844.375,1118C844.375,1137,844.375,1156,844.375,1175C844.375,1194,844.375,1213,844.375,1230C844.375,1247,844.375,1262,844.375,1277C844.375,1292,844.375,1307,844.375,1322C844.375,1337,844.375,1352,844.375,1367C844.375,1382,844.375,1397,844.375,1412C844.375,1427,844.375,1442,844.375,1457C844.375,1472,844.375,1487,844.375,1502C844.375,1517,844.375,1532,844.375,1547C844.375,1562,844.375,1577,844.375,1592C844.375,1607,844.375,1622,844.375,1637C844.375,1652,844.375,1667,844.375,1684C844.375,1701,844.375,1720,837.063,1735.667C829.751,1751.333,815.127,1763.667,807.815,1769.833L800.503,1776" id="my-svg-edge23" class="edge-thickness-normal edge-pattern-solid transition" style="fill:none;;;fill:none" data-edge="true" data-et="edge" data-id="edge23" data-points="W3sieCI6NzQwLjUyMzQzNzUsInkiOjQ3My42Mzg1MTczODYzMjAyfSx7IngiOjg0NC4zNzUsInkiOjUxNX0seyJ4Ijo4NDQuMzc1LCJ5Ijo1NzJ9LHsieCI6ODQ0LjM3NSwieSI6NjI5fSx7IngiOjg0NC4zNzUsInkiOjY4Nn0seyJ4Ijo4NDQuMzc1LCJ5Ijo3MzF9LHsieCI6ODQ0LjM3NSwieSI6Nzc2fSx7IngiOjg0NC4zNzUsInkiOjgyMX0seyJ4Ijo4NDQuMzc1LCJ5Ijo4NjZ9LHsieCI6ODQ0LjM3NSwieSI6OTM1fSx7IngiOjg0NC4zNzUsInkiOjEwMDR9LHsieCI6ODQ0LjM3NSwieSI6MTA2MX0seyJ4Ijo4NDQuMzc1LCJ5IjoxMTE4fSx7IngiOjg0NC4zNzUsInkiOjExNzV9LHsieCI6ODQ0LjM3NSwieSI6MTIzMn0seyJ4Ijo4NDQuMzc1LCJ5IjoxMjc3fSx7IngiOjg0NC4zNzUsInkiOjEzMjJ9LHsieCI6ODQ0LjM3NSwieSI6MTM2N30seyJ4Ijo4NDQuMzc1LCJ5IjoxNDEyfSx7IngiOjg0NC4zNzUsInkiOjE0NTd9LHsieCI6ODQ0LjM3NSwieSI6MTUwMn0seyJ4Ijo4NDQuMzc1LCJ5IjoxNTQ3fSx7IngiOjg0NC4zNzUsInkiOjE1OTJ9LHsieCI6ODQ0LjM3NSwieSI6MTYzN30seyJ4Ijo4NDQuMzc1LCJ5IjoxNjgyfSx7IngiOjg0NC4zNzUsInkiOjE3Mzl9LHsieCI6ODAwLjUwMzQyNjUzNTA4NzcsInkiOjE3NzZ9XQ==" data-look="classic" marker-end="url(#my-svg_stateDiagram-barbEnd)"/><path d="M704.046,478L704.905,484.167C705.765,490.333,707.484,502.667,708.344,518.333C709.203,534,709.203,553,709.203,572C709.203,591,709.203,610,709.203,629C709.203,648,709.203,667,709.203,684C709.203,701,709.203,716,709.203,731C709.203,746,709.203,761,709.203,776C709.203,791,709.203,806,709.203,821C709.203,836,709.203,851,709.203,870C709.203,889,709.203,912,709.203,935C709.203,958,709.203,981,709.203,1002C709.203,1023,709.203,1042,709.203,1061C709.203,1080,709.203,1099,709.203,1118C709.203,1137,709.203,1156,709.203,1175C709.203,1194,709.203,1213,709.203,1230C709.203,1247,709.203,1262,709.203,1277C709.203,1292,709.203,1307,709.203,1322C709.203,1337,709.203,1352,709.203,1367C709.203,1382,709.203,1397,709.203,1412C709.203,1427,709.203,1442,709.203,1457C709.203,1472,709.203,1487,709.203,1502C709.203,1517,709.203,1532,709.203,1543.667C709.203,1555.333,709.203,1563.667,709.203,1567.833L709.203,1572" id="my-svg-edge24" class="edge-thickness-normal edge-pattern-solid transition" style="fill:none;;;fill:none" data-edge="true" data-et="edge" data-id="edge24" data-points="W3sieCI6NzA0LjA0NTY0MTQ0NzM2ODQsInkiOjQ3OH0seyJ4Ijo3MDkuMjAzMTI1LCJ5Ijo1MTV9LHsieCI6NzA5LjIwMzEyNSwieSI6NTcyfSx7IngiOjcwOS4yMDMxMjUsInkiOjYyOX0seyJ4Ijo3MDkuMjAzMTI1LCJ5Ijo2ODZ9LHsieCI6NzA5LjIwMzEyNSwieSI6NzMxfSx7IngiOjcwOS4yMDMxMjUsInkiOjc3Nn0seyJ4Ijo3MDkuMjAzMTI1LCJ5Ijo4MjF9LHsieCI6NzA5LjIwMzEyNSwieSI6ODY2fSx7IngiOjcwOS4yMDMxMjUsInkiOjkzNX0seyJ4Ijo3MDkuMjAzMTI1LCJ5IjoxMDA0fSx7IngiOjcwOS4yMDMxMjUsInkiOjEwNjF9LHsieCI6NzA5LjIwMzEyNSwieSI6MTExOH0seyJ4Ijo3MDkuMjAzMTI1LCJ5IjoxMTc1fSx7IngiOjcwOS4yMDMxMjUsInkiOjEyMzJ9LHsieCI6NzA5LjIwMzEyNSwieSI6MTI3N30seyJ4Ijo3MDkuMjAzMTI1LCJ5IjoxMzIyfSx7IngiOjcwOS4yMDMxMjUsInkiOjEzNjd9LHsieCI6NzA5LjIwMzEyNSwieSI6MTQxMn0seyJ4Ijo3MDkuMjAzMTI1LCJ5IjoxNDU3fSx7IngiOjcwOS4yMDMxMjUsInkiOjE1MDJ9LHsieCI6NzA5LjIwMzEyNSwieSI6MTU0N30seyJ4Ijo3MDkuMjAzMTI1LCJ5IjoxNTcyfV0=" data-look="classic" marker-end="url(#my-svg_stateDiagram-barbEnd)"/><path d="M709.203,1612L709.203,1616.167C709.203,1620.333,709.203,1628.667,709.203,1637C709.203,1645.333,709.203,1653.667,709.203,1657.833L709.203,1662" id="my-svg-edge25" class="edge-thickness-normal edge-pattern-solid transition" style="fill:none;;;fill:none" data-edge="true" data-et="edge" data-id="edge25" data-points="W3sieCI6NzA5LjIwMzEyNSwieSI6MTYxMn0seyJ4Ijo3MDkuMjAzMTI1LCJ5IjoxNjM3fSx7IngiOjcwOS4yMDMxMjUsInkiOjE2NjJ9XQ==" data-look="classic" marker-end="url(#my-svg_stateDiagram-barbEnd)"/><path d="M776.789,1816L776.789,1820.167C776.789,1824.333,776.789,1832.667,776.789,1840.999C776.789,1849.331,776.789,1857.662,776.789,1861.828L776.789,1865.993" id="my-svg-edge26" class="edge-thickness-normal edge-pattern-solid transition" style="fill:none;;;fill:none" data-edge="true" data-et="edge" data-id="edge26" data-points="W3sieCI6Nzc2Ljc4OTA2MjUsInkiOjE4MTZ9LHsieCI6Nzc2Ljc4OTA2MjUsInkiOjE4NDF9LHsieCI6Nzc2Ljc4OTA2MjUsInkiOjE4NjUuOTkzMzUzMzY2ODUxOH1d" data-look="classic" marker-end="url(#my-svg_stateDiagram-barbEnd)"/></g><g class="edgeLabels"><g class="edgeLabel"><g class="label" data-id="edge0" transform="translate(0, 0)"><foreignObject width="0" height="0"><div xmlns="http://www.w3.org/1999/xhtml" class="labelBkg" style="display: table-cell; white-space: nowrap; line-height: 1.5; max-width: 200px; text-align: center;"><span class="edgeLabel"></span></div></foreignObject></g></g><g class="edgeLabel" transform="translate(701.2578125, 149)"><g class="label" data-id="edge1" transform="translate(-82.7265625, -12)"><foreignObject width="165.453125" height="24"><div xmlns="http://www.w3.org/1999/xhtml" class="labelBkg" style="display: table-cell; white-space: nowrap; line-height: 1.5; max-width: 200px; text-align: center;"><span class="edgeLabel"><p>init adapters and config</p></span></div></foreignObject></g></g><g class="edgeLabel" transform="translate(701.2578125, 275)"><g class="label" data-id="edge2" transform="translate(-100, -24)"><foreignObject width="200" height="48"><div xmlns="http://www.w3.org/1999/xhtml" class="labelBkg" style="display: table; white-space: break-spaces; line-height: 1.5; max-width: 200px; text-align: center; width: 200px;"><span class="edgeLabel"><p>merged symbol/address registry prepared</p></span></div></foreignObject></g></g><g class="edgeLabel" transform="translate(701.2578125, 401)"><g class="label" data-id="edge3" transform="translate(-55.1484375, -12)"><foreignObject width="110.296875" height="24"><div xmlns="http://www.w3.org/1999/xhtml" class="labelBkg" style="display: table-cell; white-space: nowrap; line-height: 1.5; max-width: 200px; text-align: center;"><span class="edgeLabel"><p>enter main loop</p></span></div></foreignObject></g></g><g class="edgeLabel" transform="translate(101.3984375, 1004)"><g class="label" data-id="edge4" transform="translate(-93.3984375, -12)"><foreignObject width="186.796875" height="24"><div xmlns="http://www.w3.org/1999/xhtml" class="labelBkg" style="display: table-cell; white-space: nowrap; line-height: 1.5; max-width: 200px; text-align: center;"><span class="edgeLabel"><p>emergency_pause == true</p></span></div></foreignObject></g></g><g class="edgeLabel"><g class="label" data-id="edge5" transform="translate(0, 0)"><foreignObject width="0" height="0"><div xmlns="http://www.w3.org/1999/xhtml" class="labelBkg" style="display: table-cell; white-space: nowrap; line-height: 1.5; max-width: 200px; text-align: center;"><span class="edgeLabel"></span></div></foreignObject></g></g><g class="edgeLabel" transform="translate(432.1171875, 515)"><g class="label" data-id="edge6" transform="translate(-96.5078125, -12)"><foreignObject width="193.015625" height="24"><div xmlns="http://www.w3.org/1999/xhtml" class="labelBkg" style="display: table-cell; white-space: nowrap; line-height: 1.5; max-width: 200px; text-align: center;"><span class="edgeLabel"><p>emergency_pause == false</p></span></div></foreignObject></g></g><g class="edgeLabel" transform="translate(312.65625, 1061)"><g class="label" data-id="edge7" transform="translate(-79.1640625, -12)"><foreignObject width="158.328125" height="24"><div xmlns="http://www.w3.org/1999/xhtml" class="labelBkg" style="display: table-cell; white-space: nowrap; line-height: 1.5; max-width: 200px; text-align: center;"><span class="edgeLabel"><p>snapshot.stale == true</p></span></div></foreignObject></g></g><g class="edgeLabel"><g class="label" data-id="edge8" transform="translate(0, 0)"><foreignObject width="0" height="0"><div xmlns="http://www.w3.org/1999/xhtml" class="labelBkg" style="display: table-cell; white-space: nowrap; line-height: 1.5; max-width: 200px; text-align: center;"><span class="edgeLabel"></span></div></foreignObject></g></g><g class="edgeLabel" transform="translate(528.11328125, 629)"><g class="label" data-id="edge9" transform="translate(-82.28125, -12)"><foreignObject width="164.5625" height="24"><div xmlns="http://www.w3.org/1999/xhtml" class="labelBkg" style="display: table-cell; white-space: nowrap; line-height: 1.5; max-width: 200px; text-align: center;"><span class="edgeLabel"><p>snapshot.stale == false</p></span></div></foreignObject></g></g><g class="edgeLabel"><g class="label" data-id="edge10" transform="translate(0, 0)"><foreignObject width="0" height="0"><div xmlns="http://www.w3.org/1999/xhtml" class="labelBkg" style="display: table-cell; white-space: nowrap; line-height: 1.5; max-width: 200px; text-align: center;"><span class="edgeLabel"></span></div></foreignObject></g></g><g class="edgeLabel"><g class="label" data-id="edge11" transform="translate(0, 0)"><foreignObject width="0" height="0"><div xmlns="http://www.w3.org/1999/xhtml" class="labelBkg" style="display: table-cell; white-space: nowrap; line-height: 1.5; max-width: 200px; text-align: center;"><span class="edgeLabel"></span></div></foreignObject></g></g><g class="edgeLabel" transform="translate(474.9140625, 935)"><g class="label" data-id="edge12" transform="translate(-100, -24)"><foreignObject width="200" height="48"><div xmlns="http://www.w3.org/1999/xhtml" class="labelBkg" style="display: table; white-space: break-spaces; line-height: 1.5; max-width: 200px; text-align: center; width: 200px;"><span class="edgeLabel"><p>competition_mode and quota_at_risk</p></span></div></foreignObject></g></g><g class="edgeLabel"><g class="label" data-id="edge13" transform="translate(0, 0)"><foreignObject width="0" height="0"><div xmlns="http://www.w3.org/1999/xhtml" class="labelBkg" style="display: table-cell; white-space: nowrap; line-height: 1.5; max-width: 200px; text-align: center;"><span class="edgeLabel"></span></div></foreignObject></g></g><g class="edgeLabel" transform="translate(602.546875, 1004)"><g class="label" data-id="edge14" transform="translate(-34.2421875, -12)"><foreignObject width="68.484375" height="24"><div xmlns="http://www.w3.org/1999/xhtml" class="labelBkg" style="display: table-cell; white-space: nowrap; line-height: 1.5; max-width: 200px; text-align: center;"><span class="edgeLabel"><p>otherwise</p></span></div></foreignObject></g></g><g class="edgeLabel"><g class="label" data-id="edge15" transform="translate(0, 0)"><foreignObject width="0" height="0"><div xmlns="http://www.w3.org/1999/xhtml" class="labelBkg" style="display: table-cell; white-space: nowrap; line-height: 1.5; max-width: 200px; text-align: center;"><span class="edgeLabel"></span></div></foreignObject></g></g><g class="edgeLabel"><g class="label" data-id="edge16" transform="translate(0, 0)"><foreignObject width="0" height="0"><div xmlns="http://www.w3.org/1999/xhtml" class="labelBkg" style="display: table-cell; white-space: nowrap; line-height: 1.5; max-width: 200px; text-align: center;"><span class="edgeLabel"></span></div></foreignObject></g></g><g class="edgeLabel"><g class="label" data-id="edge17" transform="translate(0, 0)"><foreignObject width="0" height="0"><div xmlns="http://www.w3.org/1999/xhtml" class="labelBkg" style="display: table-cell; white-space: nowrap; line-height: 1.5; max-width: 200px; text-align: center;"><span class="edgeLabel"></span></div></foreignObject></g></g><g class="edgeLabel"><g class="label" data-id="edge18" transform="translate(0, 0)"><foreignObject width="0" height="0"><div xmlns="http://www.w3.org/1999/xhtml" class="labelBkg" style="display: table-cell; white-space: nowrap; line-height: 1.5; max-width: 200px; text-align: center;"><span class="edgeLabel"></span></div></foreignObject></g></g><g class="edgeLabel"><g class="label" data-id="edge19" transform="translate(0, 0)"><foreignObject width="0" height="0"><div xmlns="http://www.w3.org/1999/xhtml" class="labelBkg" style="display: table-cell; white-space: nowrap; line-height: 1.5; max-width: 200px; text-align: center;"><span class="edgeLabel"></span></div></foreignObject></g></g><g class="edgeLabel"><g class="label" data-id="edge20" transform="translate(0, 0)"><foreignObject width="0" height="0"><div xmlns="http://www.w3.org/1999/xhtml" class="labelBkg" style="display: table-cell; white-space: nowrap; line-height: 1.5; max-width: 200px; text-align: center;"><span class="edgeLabel"></span></div></foreignObject></g></g><g class="edgeLabel"><g class="label" data-id="edge21" transform="translate(0, 0)"><foreignObject width="0" height="0"><div xmlns="http://www.w3.org/1999/xhtml" class="labelBkg" style="display: table-cell; white-space: nowrap; line-height: 1.5; max-width: 200px; text-align: center;"><span class="edgeLabel"></span></div></foreignObject></g></g><g class="edgeLabel" transform="translate(709.203125, 1739)"><g class="label" data-id="edge22" transform="translate(-38.25, -12)"><foreignObject width="76.5" height="24"><div xmlns="http://www.w3.org/1999/xhtml" class="labelBkg" style="display: table-cell; white-space: nowrap; line-height: 1.5; max-width: 200px; text-align: center;"><span class="edgeLabel"><p>stop signal</p></span></div></foreignObject></g></g><g class="edgeLabel" transform="translate(844.375, 1175)"><g class="label" data-id="edge23" transform="translate(-38.25, -12)"><foreignObject width="76.5" height="24"><div xmlns="http://www.w3.org/1999/xhtml" class="labelBkg" style="display: table-cell; white-space: nowrap; line-height: 1.5; max-width: 200px; text-align: center;"><span class="edgeLabel"><p>stop signal</p></span></div></foreignObject></g></g><g class="edgeLabel" transform="translate(709.203125, 1061)"><g class="label" data-id="edge24" transform="translate(-56.921875, -12)"><foreignObject width="113.84375" height="24"><div xmlns="http://www.w3.org/1999/xhtml" class="labelBkg" style="display: table-cell; white-space: nowrap; line-height: 1.5; max-width: 200px; text-align: center;"><span class="edgeLabel"><p>exception in tick</p></span></div></foreignObject></g></g><g class="edgeLabel"><g class="label" data-id="edge25" transform="translate(0, 0)"><foreignObject width="0" height="0"><div xmlns="http://www.w3.org/1999/xhtml" class="labelBkg" style="display: table-cell; white-space: nowrap; line-height: 1.5; max-width: 200px; text-align: center;"><span class="edgeLabel"></span></div></foreignObject></g></g><g class="edgeLabel"><g class="label" data-id="edge26" transform="translate(0, 0)"><foreignObject width="0" height="0"><div xmlns="http://www.w3.org/1999/xhtml" class="labelBkg" style="display: table-cell; white-space: nowrap; line-height: 1.5; max-width: 200px; text-align: center;"><span class="edgeLabel"></span></div></foreignObject></g></g></g><g class="nodes"><g class="node default" id="my-svg-state-root_start-0" data-look="classic" transform="translate(701.2578125, 15)"><circle class="state-start" r="7" width="14" height="14"/></g><g class="node  statediagram-state" id="my-svg-state-Booting-1" data-look="classic" transform="translate(701.2578125, 92)"><rect class="basic label-container" style="" rx="5" ry="5" x="-35.1328125" y="-20" width="70.265625" height="40"/><g class="label" style="" transform="translate(-27.1328125, -12)"><rect/><foreignObject width="54.265625" height="24"><div xmlns="http://www.w3.org/1999/xhtml" style="display: table-cell; white-space: nowrap; line-height: 1.5; max-width: 200px; text-align: center;"><span class="nodeLabel markdown-node-label"><p>Booting</p></span></div></foreignObject></g></g><g class="node  statediagram-state" id="my-svg-state-ResolvingTokenAddresses-2" data-look="classic" transform="translate(701.2578125, 206)"><rect class="basic label-container" style="" rx="5" ry="5" x="-102.2734375" y="-20" width="204.546875" height="40"/><g class="label" style="" transform="translate(-94.2734375, -12)"><rect/><foreignObject width="188.546875" height="24"><div xmlns="http://www.w3.org/1999/xhtml" style="display: table-cell; white-space: nowrap; line-height: 1.5; max-width: 200px; text-align: center;"><span class="nodeLabel markdown-node-label"><p>ResolvingTokenAddresses</p></span></div></foreignObject></g></g><g class="node  statediagram-state" id="my-svg-state-Ready-3" data-look="classic" transform="translate(701.2578125, 344)"><rect class="basic label-container" style="" rx="5" ry="5" x="-31.125" y="-20" width="62.25" height="40"/><g class="label" style="" transform="translate(-23.125, -12)"><rect/><foreignObject width="46.25" height="24"><div xmlns="http://www.w3.org/1999/xhtml" style="display: table-cell; white-space: nowrap; line-height: 1.5; max-width: 200px; text-align: center;"><span class="nodeLabel markdown-node-label"><p>Ready</p></span></div></foreignObject></g></g><g class="node  statediagram-state" id="my-svg-state-TickStart-24" data-look="classic" transform="translate(701.2578125, 458)"><rect class="basic label-container" style="" rx="5" ry="5" x="-39.265625" y="-20" width="78.53125" height="40"/><g class="label" style="" transform="translate(-31.265625, -12)"><rect/><foreignObject width="62.53125" height="24"><div xmlns="http://www.w3.org/1999/xhtml" style="display: table-cell; white-space: nowrap; line-height: 1.5; max-width: 200px; text-align: center;"><span class="nodeLabel markdown-node-label"><p>TickStart</p></span></div></foreignObject></g></g><g class="node  statediagram-state" id="my-svg-state-TickSkippedEmergency-5" data-look="classic" transform="translate(101.3984375, 1502)"><rect class="basic label-container" style="" rx="5" ry="5" x="-91.7421875" y="-20" width="183.484375" height="40"/><g class="label" style="" transform="translate(-83.7421875, -12)"><rect/><foreignObject width="167.484375" height="24"><div xmlns="http://www.w3.org/1999/xhtml" style="display: table-cell; white-space: nowrap; line-height: 1.5; max-width: 200px; text-align: center;"><span class="nodeLabel markdown-node-label"><p>TickSkippedEmergency</p></span></div></foreignObject></g></g><g class="node  statediagram-state" id="my-svg-state-LoopControl-20" data-look="classic" transform="translate(318.91796875, 1592)"><rect class="basic label-container" style="" rx="5" ry="5" x="-51.5859375" y="-20" width="103.171875" height="40"/><g class="label" style="" transform="translate(-43.5859375, -12)"><rect/><foreignObject width="87.171875" height="24"><div xmlns="http://www.w3.org/1999/xhtml" style="display: table-cell; white-space: nowrap; line-height: 1.5; max-width: 200px; text-align: center;"><span class="nodeLabel markdown-node-label"><p>LoopControl</p></span></div></foreignObject></g></g><g class="node  statediagram-state" id="my-svg-state-FetchingSnapshot-9" data-look="classic" transform="translate(432.1171875, 572)"><rect class="basic label-container" style="" rx="5" ry="5" x="-72.4921875" y="-20" width="144.984375" height="40"/><g class="label" style="" transform="translate(-64.4921875, -12)"><rect/><foreignObject width="128.984375" height="24"><div xmlns="http://www.w3.org/1999/xhtml" style="display: table-cell; white-space: nowrap; line-height: 1.5; max-width: 200px; text-align: center;"><span class="nodeLabel markdown-node-label"><p>FetchingSnapshot</p></span></div></foreignObject></g></g><g class="node  statediagram-state" id="my-svg-state-TickSkippedStale-8" data-look="classic" transform="translate(312.65625, 1502)"><rect class="basic label-container" style="" rx="5" ry="5" x="-69.515625" y="-20" width="139.03125" height="40"/><g class="label" style="" transform="translate(-61.515625, -12)"><rect/><foreignObject width="123.03125" height="24"><div xmlns="http://www.w3.org/1999/xhtml" style="display: table-cell; white-space: nowrap; line-height: 1.5; max-width: 200px; text-align: center;"><span class="nodeLabel markdown-node-label"><p>TickSkippedStale</p></span></div></foreignObject></g></g><g class="node  statediagram-state" id="my-svg-state-FetchingPortfolio-10" data-look="classic" transform="translate(528.11328125, 686)"><rect class="basic label-container" style="" rx="5" ry="5" x="-68.03125" y="-20" width="136.0625" height="40"/><g class="label" style="" transform="translate(-60.03125, -12)"><rect/><foreignObject width="120.0625" height="24"><div xmlns="http://www.w3.org/1999/xhtml" style="display: table-cell; white-space: nowrap; line-height: 1.5; max-width: 200px; text-align: center;"><span class="nodeLabel markdown-node-label"><p>FetchingPortfolio</p></span></div></foreignObject></g></g><g class="node  statediagram-state" id="my-svg-state-UpdatingCompetitionState-11" data-look="classic" transform="translate(528.11328125, 776)"><rect class="basic label-container" style="" rx="5" ry="5" x="-101.390625" y="-20" width="202.78125" height="40"/><g class="label" style="" transform="translate(-93.390625, -12)"><rect/><foreignObject width="186.78125" height="24"><div xmlns="http://www.w3.org/1999/xhtml" style="display: table-cell; white-space: nowrap; line-height: 1.5; max-width: 200px; text-align: center;"><span class="nodeLabel markdown-node-label"><p>UpdatingCompetitionState</p></span></div></foreignObject></g></g><g class="node  statediagram-state" id="my-svg-state-QuotaCheck-14" data-look="classic" transform="translate(528.11328125, 866)"><rect class="basic label-container" style="" rx="5" ry="5" x="-52.46875" y="-20" width="104.9375" height="40"/><g class="label" style="" transform="translate(-44.46875, -12)"><rect/><foreignObject width="88.9375" height="24"><div xmlns="http://www.w3.org/1999/xhtml" style="display: table-cell; white-space: nowrap; line-height: 1.5; max-width: 200px; text-align: center;"><span class="nodeLabel markdown-node-label"><p>QuotaCheck</p></span></div></foreignObject></g></g><g class="node  statediagram-state" id="my-svg-state-FallbackTrade-13" data-look="classic" transform="translate(474.9140625, 1004)"><rect class="basic label-container" style="" rx="5" ry="5" x="-58.390625" y="-20" width="116.78125" height="40"/><g class="label" style="" transform="translate(-50.390625, -12)"><rect/><foreignObject width="100.78125" height="24"><div xmlns="http://www.w3.org/1999/xhtml" style="display: table-cell; white-space: nowrap; line-height: 1.5; max-width: 200px; text-align: center;"><span class="nodeLabel markdown-node-label"><p>FallbackTrade</p></span></div></foreignObject></g></g><g class="node  statediagram-state" id="my-svg-state-GeneratingSignal-15" data-look="classic" transform="translate(528.11328125, 1118)"><rect class="basic label-container" style="" rx="5" ry="5" x="-69.8203125" y="-20" width="139.640625" height="40"/><g class="label" style="" transform="translate(-61.8203125, -12)"><rect/><foreignObject width="123.640625" height="24"><div xmlns="http://www.w3.org/1999/xhtml" style="display: table-cell; white-space: nowrap; line-height: 1.5; max-width: 200px; text-align: center;"><span class="nodeLabel markdown-node-label"><p>GeneratingSignal</p></span></div></foreignObject></g></g><g class="node  statediagram-state" id="my-svg-state-ExecutingDecision-16" data-look="classic" transform="translate(528.11328125, 1232)"><rect class="basic label-container" style="" rx="5" ry="5" x="-73.8125" y="-20" width="147.625" height="40"/><g class="label" style="" transform="translate(-65.8125, -12)"><rect/><foreignObject width="131.625" height="24"><div xmlns="http://www.w3.org/1999/xhtml" style="display: table-cell; white-space: nowrap; line-height: 1.5; max-width: 200px; text-align: center;"><span class="nodeLabel markdown-node-label"><p>ExecutingDecision</p></span></div></foreignObject></g></g><g class="node  statediagram-state" id="my-svg-state-UpdatingPostTrade-17" data-look="classic" transform="translate(528.11328125, 1322)"><rect class="basic label-container" style="" rx="5" ry="5" x="-76.6328125" y="-20" width="153.265625" height="40"/><g class="label" style="" transform="translate(-68.6328125, -12)"><rect/><foreignObject width="137.265625" height="24"><div xmlns="http://www.w3.org/1999/xhtml" style="display: table-cell; white-space: nowrap; line-height: 1.5; max-width: 200px; text-align: center;"><span class="nodeLabel markdown-node-label"><p>UpdatingPostTrade</p></span></div></foreignObject></g></g><g class="node  statediagram-state" id="my-svg-state-PersistingOps-18" data-look="classic" transform="translate(528.11328125, 1412)"><rect class="basic label-container" style="" rx="5" ry="5" x="-57.796875" y="-20" width="115.59375" height="40"/><g class="label" style="" transform="translate(-49.796875, -12)"><rect/><foreignObject width="99.59375" height="24"><div xmlns="http://www.w3.org/1999/xhtml" style="display: table-cell; white-space: nowrap; line-height: 1.5; max-width: 200px; text-align: center;"><span class="nodeLabel markdown-node-label"><p>PersistingOps</p></span></div></foreignObject></g></g><g class="node  statediagram-state" id="my-svg-state-PersistingPortfolio-19" data-look="classic" transform="translate(528.11328125, 1502)"><rect class="basic label-container" style="" rx="5" ry="5" x="-72.4765625" y="-20" width="144.953125" height="40"/><g class="label" style="" transform="translate(-64.4765625, -12)"><rect/><foreignObject width="128.953125" height="24"><div xmlns="http://www.w3.org/1999/xhtml" style="display: table-cell; white-space: nowrap; line-height: 1.5; max-width: 200px; text-align: center;"><span class="nodeLabel markdown-node-label"><p>PersistingPortfolio</p></span></div></foreignObject></g></g><g class="node  statediagram-state" id="my-svg-state-Sleeping-25" data-look="classic" transform="translate(709.203125, 1682)"><rect class="basic label-container" style="" rx="5" ry="5" x="-39.140625" y="-20" width="78.28125" height="40"/><g class="label" style="" transform="translate(-31.140625, -12)"><rect/><foreignObject width="62.28125" height="24"><div xmlns="http://www.w3.org/1999/xhtml" style="display: table-cell; white-space: nowrap; line-height: 1.5; max-width: 200px; text-align: center;"><span class="nodeLabel markdown-node-label"><p>Sleeping</p></span></div></foreignObject></g></g><g class="node  statediagram-state" id="my-svg-state-Shutdown-26" data-look="classic" transform="translate(776.7890625, 1796)"><rect class="basic label-container" style="" rx="5" ry="5" x="-43.5859375" y="-20" width="87.171875" height="40"/><g class="label" style="" transform="translate(-35.5859375, -12)"><rect/><foreignObject width="71.171875" height="24"><div xmlns="http://www.w3.org/1999/xhtml" style="display: table-cell; white-space: nowrap; line-height: 1.5; max-width: 200px; text-align: center;"><span class="nodeLabel markdown-node-label"><p>Shutdown</p></span></div></foreignObject></g></g><g class="node  statediagram-state" id="my-svg-state-TickError-25" data-look="classic" transform="translate(709.203125, 1592)"><rect class="basic label-container" style="" rx="5" ry="5" x="-40.1484375" y="-20" width="80.296875" height="40"/><g class="label" style="" transform="translate(-32.1484375, -12)"><rect/><foreignObject width="64.296875" height="24"><div xmlns="http://www.w3.org/1999/xhtml" style="display: table-cell; white-space: nowrap; line-height: 1.5; max-width: 200px; text-align: center;"><span class="nodeLabel markdown-node-label"><p>TickError</p></span></div></foreignObject></g></g><g class="node default" id="my-svg-state-root_end-26" data-look="classic" transform="translate(776.7890625, 1873)"><g class="outer-path"><path d="M7 0 C7 0.40517908122283747, 6.964012880168563 0.816513743121899, 6.893654271085456 1.2155372436685123 C6.823295662002349 1.6145607442151257, 6.716427752933756 2.013397210557766, 6.5778483455013586 2.394141003279681 C6.439268938068961 2.7748847960015954, 6.26476736710249 3.149104622578984, 6.062177826491071 3.4999999999999996 C5.859588285879653 3.8508953774210153, 5.622755194947063 4.189128084166967, 5.362311101832846 4.499513267805774 C5.10186700871863 4.809898451444582, 4.809898451444583 5.10186700871863, 4.499513267805775 5.362311101832846 C4.189128084166968 5.622755194947063, 3.8508953774210166 5.859588285879652, 3.500000000000001 6.06217782649107 C3.149104622578985 6.264767367102489, 2.7748847960015963 6.439268938068961, 2.3941410032796817 6.5778483455013586 C2.013397210557767 6.716427752933756, 1.6145607442151264 6.823295662002349, 1.2155372436685128 6.893654271085456 C0.8165137431218992 6.964012880168563, 0.4051790812228379 7, 4.286263797015736e-16 7 C-0.405179081222837 7, -0.8165137431218985 6.964012880168563, -1.2155372436685121 6.893654271085456 C-1.6145607442151257 6.823295662002349, -2.0133972105577667 6.716427752933756, -2.394141003279681 6.5778483455013586 C-2.774884796001595 6.439268938068961, -3.149104622578983 6.26476736710249, -3.4999999999999982 6.062177826491071 C-3.8508953774210135 5.859588285879653, -4.189128084166966 5.6227551949470636, -4.499513267805773 5.362311101832848 C-4.809898451444581 5.101867008718632, -5.101867008718628 4.809898451444586, -5.3623111018328435 4.499513267805779 C-5.622755194947059 4.189128084166971, -5.859588285879649 3.8508953774210206, -6.062177826491068 3.5000000000000053 C-6.264767367102486 3.14910462257899, -6.439268938068958 2.774884796001602, -6.577848345501356 2.394141003279688 C-6.716427752933754 2.0133972105577738, -6.823295662002347 1.614560744215134, -6.893654271085454 1.215537243668521 C-6.9640128801685615 0.816513743121908, -6.999999999999999 0.4051790812228472, -7 1.0183126166254463e-14 C-7.000000000000001 -0.40517908122282686, -6.964012880168565 -0.8165137431218878, -6.893654271085459 -1.215537243668501 C-6.823295662002352 -1.6145607442151142, -6.716427752933759 -2.0133972105577542, -6.577848345501363 -2.394141003279669 C-6.439268938068967 -2.7748847960015834, -6.264767367102496 -3.149104622578972, -6.062177826491078 -3.4999999999999876 C-5.859588285879661 -3.8508953774210033, -5.6227551949470715 -4.1891280841669545, -5.362311101832856 -4.499513267805763 C-5.10186700871864 -4.809898451444571, -4.809898451444594 -5.10186700871862, -4.499513267805787 -5.362311101832836 C-4.189128084166979 -5.622755194947053, -3.850895377421028 -5.859588285879643, -3.5000000000000133 -6.062177826491062 C-3.1491046225789985 -6.264767367102482, -2.774884796001611 -6.439268938068954, -2.3941410032796973 -6.577848345501353 C-2.0133972105577835 -6.716427752933752, -1.6145607442151435 -6.823295662002345, -1.2155372436685306 -6.893654271085453 C-0.8165137431219176 -6.9640128801685615, -0.40517908122285695 -6.999999999999999, -1.9937625952807352e-14 -7 C0.4051790812228171 -7.000000000000001, 0.8165137431218781 -6.964012880168565, 1.2155372436684913 -6.89365427108546 C1.6145607442151044 -6.823295662002354, 2.013397210557745 -6.716427752933763, 2.3941410032796595 -6.5778483455013665 C2.774884796001574 -6.43926893806897, 3.149104622578963 -6.2647673671025, 3.499999999999979 -6.062177826491083 C3.8508953774209953 -5.859588285879665, 4.189128084166947 -5.622755194947077, 4.499513267805756 -5.362311101832862 C4.809898451444564 -5.1018670087186475, 5.101867008718613 -4.809898451444602, 5.362311101832829 -4.499513267805796 C5.622755194947046 -4.189128084166989, 5.859588285879637 -3.8508953774210393, 6.062177826491056 -3.500000000000025 C6.2647673671024755 -3.1491046225790105, 6.439268938068949 -2.774884796001623, 6.577848345501348 -2.3941410032797092 C6.716427752933747 -2.0133972105577955, 6.823295662002342 -1.6145607442151562, 6.893654271085451 -1.2155372436685434 C6.96401288016856 -0.8165137431219307, 6.982275711847575 -0.2025895406114567, 7 -3.2800750208310675e-14 C7.017724288152425 0.2025895406113911, 7.017724288152424 -0.2025895406114242, 7 0" stroke="none" stroke-width="0" fill="#ECECFF" style=""/><path d="M7 0 C7 0.40517908122283747, 6.964012880168563 0.816513743121899, 6.893654271085456 1.2155372436685123 C6.823295662002349 1.6145607442151257, 6.716427752933756 2.013397210557766, 6.5778483455013586 2.394141003279681 C6.439268938068961 2.7748847960015954, 6.26476736710249 3.149104622578984, 6.062177826491071 3.4999999999999996 C5.859588285879653 3.8508953774210153, 5.622755194947063 4.189128084166967, 5.362311101832846 4.499513267805774 C5.10186700871863 4.809898451444582, 4.809898451444583 5.10186700871863, 4.499513267805775 5.362311101832846 C4.189128084166968 5.622755194947063, 3.8508953774210166 5.859588285879652, 3.500000000000001 6.06217782649107 C3.149104622578985 6.264767367102489, 2.7748847960015963 6.439268938068961, 2.3941410032796817 6.5778483455013586 C2.013397210557767 6.716427752933756, 1.6145607442151264 6.823295662002349, 1.2155372436685128 6.893654271085456 C0.8165137431218992 6.964012880168563, 0.4051790812228379 7, 4.286263797015736e-16 7 C-0.405179081222837 7, -0.8165137431218985 6.964012880168563, -1.2155372436685121 6.893654271085456 C-1.6145607442151257 6.823295662002349, -2.0133972105577667 6.716427752933756, -2.394141003279681 6.5778483455013586 C-2.774884796001595 6.439268938068961, -3.149104622578983 6.26476736710249, -3.4999999999999982 6.062177826491071 C-3.8508953774210135 5.859588285879653, -4.189128084166966 5.6227551949470636, -4.499513267805773 5.362311101832848 C-4.809898451444581 5.101867008718632, -5.101867008718628 4.809898451444586, -5.3623111018328435 4.499513267805779 C-5.622755194947059 4.189128084166971, -5.859588285879649 3.8508953774210206, -6.062177826491068 3.5000000000000053 C-6.264767367102486 3.14910462257899, -6.439268938068958 2.774884796001602, -6.577848345501356 2.394141003279688 C-6.716427752933754 2.0133972105577738, -6.823295662002347 1.614560744215134, -6.893654271085454 1.215537243668521 C-6.9640128801685615 0.816513743121908, -6.999999999999999 0.4051790812228472, -7 1.0183126166254463e-14 C-7.000000000000001 -0.40517908122282686, -6.964012880168565 -0.8165137431218878, -6.893654271085459 -1.215537243668501 C-6.823295662002352 -1.6145607442151142, -6.716427752933759 -2.0133972105577542, -6.577848345501363 -2.394141003279669 C-6.439268938068967 -2.7748847960015834, -6.264767367102496 -3.149104622578972, -6.062177826491078 -3.4999999999999876 C-5.859588285879661 -3.8508953774210033, -5.6227551949470715 -4.1891280841669545, -5.362311101832856 -4.499513267805763 C-5.10186700871864 -4.809898451444571, -4.809898451444594 -5.10186700871862, -4.499513267805787 -5.362311101832836 C-4.189128084166979 -5.622755194947053, -3.850895377421028 -5.859588285879643, -3.5000000000000133 -6.062177826491062 C-3.1491046225789985 -6.264767367102482, -2.774884796001611 -6.439268938068954, -2.3941410032796973 -6.577848345501353 C-2.0133972105577835 -6.716427752933752, -1.6145607442151435 -6.823295662002345, -1.2155372436685306 -6.893654271085453 C-0.8165137431219176 -6.9640128801685615, -0.40517908122285695 -6.999999999999999, -1.9937625952807352e-14 -7 C0.4051790812228171 -7.000000000000001, 0.8165137431218781 -6.964012880168565, 1.2155372436684913 -6.89365427108546 C1.6145607442151044 -6.823295662002354, 2.013397210557745 -6.716427752933763, 2.3941410032796595 -6.5778483455013665 C2.774884796001574 -6.43926893806897, 3.149104622578963 -6.2647673671025, 3.499999999999979 -6.062177826491083 C3.8508953774209953 -5.859588285879665, 4.189128084166947 -5.622755194947077, 4.499513267805756 -5.362311101832862 C4.809898451444564 -5.1018670087186475, 5.101867008718613 -4.809898451444602, 5.362311101832829 -4.499513267805796 C5.622755194947046 -4.189128084166989, 5.859588285879637 -3.8508953774210393, 6.062177826491056 -3.500000000000025 C6.2647673671024755 -3.1491046225790105, 6.439268938068949 -2.774884796001623, 6.577848345501348 -2.3941410032797092 C6.716427752933747 -2.0133972105577955, 6.823295662002342 -1.6145607442151562, 6.893654271085451 -1.2155372436685434 C6.96401288016856 -0.8165137431219307, 6.982275711847575 -0.2025895406114567, 7 -3.2800750208310675e-14 C7.017724288152425 0.2025895406113911, 7.017724288152424 -0.2025895406114242, 7 0" stroke="#333333" stroke-width="2" fill="none" stroke-dasharray="0 0" style=""/><g><path d="M2.5 0 C2.5 0.14470681472244193, 2.487147457203058 0.29161205111496386, 2.46201938253052 0.4341204441673258 C2.436891307857982 0.5766288372196877, 2.3987241974763416 0.7190704323420595, 2.3492315519647713 0.8550503583141718 C2.299738906453201 0.991030284286284, 2.2374169168223177 1.124680222349637, 2.165063509461097 1.2499999999999998 C2.092710102099876 1.3753197776503625, 2.0081268553382365 1.496117172916774, 1.915111107797445 1.6069690242163481 C1.8220953602566536 1.7178208755159223, 1.7178208755159226 1.8220953602566536, 1.6069690242163484 1.915111107797445 C1.4961171729167742 2.0081268553382365, 1.375319777650363 2.0927101020998755, 1.2500000000000002 2.1650635094610964 C1.1246802223496375 2.2374169168223172, 0.9910302842862845 2.2997389064532, 0.8550503583141721 2.349231551964771 C0.7190704323420597 2.3987241974763416, 0.576628837219688 2.436891307857982, 0.43412044416732604 2.46201938253052 C0.291612051114964 2.487147457203058, 0.14470681472244212 2.5, 1.5308084989341916e-16 2.5 C-0.1447068147224418 2.5, -0.2916120511149638 2.487147457203058, -0.43412044416732576 2.46201938253052 C-0.5766288372196877 2.436891307857982, -0.7190704323420595 2.3987241974763416, -0.8550503583141718 2.3492315519647713 C-0.991030284286284 2.299738906453201, -1.124680222349637 2.2374169168223177, -1.2499999999999996 2.165063509461097 C-1.375319777650362 2.092710102099876, -1.4961171729167733 2.008126855338237, -1.6069690242163475 1.9151111077974459 C-1.7178208755159217 1.8220953602566548, -1.822095360256653 1.7178208755159234, -1.9151111077974443 1.6069690242163495 C-2.0081268553382357 1.4961171729167755, -2.0927101020998746 1.3753197776503645, -2.1650635094610955 1.250000000000002 C-2.2374169168223164 1.1246802223496395, -2.2997389064531992 0.9910302842862865, -2.34923155196477 0.8550503583141743 C-2.3987241974763407 0.7190704323420621, -2.436891307857981 0.5766288372196907, -2.4620193825305194 0.434120444167329 C-2.487147457203058 0.29161205111496724, -2.5 0.14470681472244545, -2.5 3.636830773662308e-15 C-2.5 -0.14470681472243818, -2.4871474572030587 -0.2916120511149599, -2.4620193825305208 -0.4341204441673218 C-2.436891307857983 -0.5766288372196837, -2.398724197476343 -0.7190704323420553, -2.3492315519647726 -0.8550503583141675 C-2.2997389064532023 -0.9910302842862798, -2.23741691682232 -1.1246802223496328, -2.165063509461099 -1.2499999999999956 C-2.092710102099878 -1.3753197776503583, -2.00812685533824 -1.4961171729167695, -1.9151111077974488 -1.606969024216344 C-1.8220953602566576 -1.7178208755159183, -1.7178208755159263 -1.82209536025665, -1.6069690242163523 -1.9151111077974416 C-1.4961171729167784 -2.0081268553382334, -1.3753197776503672 -2.0927101020998724, -1.2500000000000047 -2.1650635094610937 C-1.1246802223496422 -2.237416916822315, -0.9910302842862897 -2.299738906453198, -0.8550503583141776 -2.3492315519647686 C-0.7190704323420656 -2.3987241974763394, -0.5766288372196942 -2.4368913078579806, -0.43412044416733236 -2.462019382530519 C-0.29161205111497057 -2.4871474572030574, -0.1447068147224489 -2.4999999999999996, -7.120580697431198e-15 -2.5 C0.14470681472243463 -2.5000000000000004, 0.29161205111495647 -2.487147457203059, 0.4341204441673183 -2.4620193825305217 C0.5766288372196802 -2.436891307857984, 0.7190704323420518 -2.3987241974763442, 0.8550503583141642 -2.349231551964774 C0.9910302842862766 -2.2997389064532037, 1.1246802223496295 -2.2374169168223212, 1.2499999999999925 -2.165063509461101 C1.3753197776503554 -2.0927101020998804, 1.4961171729167668 -2.008126855338242, 1.6069690242163412 -1.915111107797451 C1.7178208755159157 -1.82209536025666, 1.8220953602566472 -1.7178208755159294, 1.915111107797439 -1.6069690242163557 C2.0081268553382308 -1.496117172916782, 2.09271010209987 -1.3753197776503712, 2.1650635094610915 -1.2500000000000089 C2.237416916822313 -1.1246802223496466, 2.299738906453196 -0.9910302842862939, 2.3492315519647673 -0.855050358314182 C2.3987241974763385 -0.71907043234207, 2.4368913078579792 -0.5766288372196986, 2.462019382530518 -0.4341204441673369 C2.487147457203057 -0.29161205111497523, 2.4936698970884197 -0.07235340736123454, 2.5 -1.1714553645825241e-14 C2.5063301029115803 0.07235340736121111, 2.50633010291158 -0.07235340736122292, 2.5 0" stroke="none" stroke-width="0" fill="#9370DB" style=""/><path d="M2.5 0 C2.5 0.14470681472244193, 2.487147457203058 0.29161205111496386, 2.46201938253052 0.4341204441673258 C2.436891307857982 0.5766288372196877, 2.3987241974763416 0.7190704323420595, 2.3492315519647713 0.8550503583141718 C2.299738906453201 0.991030284286284, 2.2374169168223177 1.124680222349637, 2.165063509461097 1.2499999999999998 C2.092710102099876 1.3753197776503625, 2.0081268553382365 1.496117172916774, 1.915111107797445 1.6069690242163481 C1.8220953602566536 1.7178208755159223, 1.7178208755159226 1.8220953602566536, 1.6069690242163484 1.915111107797445 C1.4961171729167742 2.0081268553382365, 1.375319777650363 2.0927101020998755, 1.2500000000000002 2.1650635094610964 C1.1246802223496375 2.2374169168223172, 0.9910302842862845 2.2997389064532, 0.8550503583141721 2.349231551964771 C0.7190704323420597 2.3987241974763416, 0.576628837219688 2.436891307857982, 0.43412044416732604 2.46201938253052 C0.291612051114964 2.487147457203058, 0.14470681472244212 2.5, 1.5308084989341916e-16 2.5 C-0.1447068147224418 2.5, -0.2916120511149638 2.487147457203058, -0.43412044416732576 2.46201938253052 C-0.5766288372196877 2.436891307857982, -0.7190704323420595 2.3987241974763416, -0.8550503583141718 2.3492315519647713 C-0.991030284286284 2.299738906453201, -1.124680222349637 2.2374169168223177, -1.2499999999999996 2.165063509461097 C-1.375319777650362 2.092710102099876, -1.4961171729167733 2.008126855338237, -1.6069690242163475 1.9151111077974459 C-1.7178208755159217 1.8220953602566548, -1.822095360256653 1.7178208755159234, -1.9151111077974443 1.6069690242163495 C-2.0081268553382357 1.4961171729167755, -2.0927101020998746 1.3753197776503645, -2.1650635094610955 1.250000000000002 C-2.2374169168223164 1.1246802223496395, -2.2997389064531992 0.9910302842862865, -2.34923155196477 0.8550503583141743 C-2.3987241974763407 0.7190704323420621, -2.436891307857981 0.5766288372196907, -2.4620193825305194 0.434120444167329 C-2.487147457203058 0.29161205111496724, -2.5 0.14470681472244545, -2.5 3.636830773662308e-15 C-2.5 -0.14470681472243818, -2.4871474572030587 -0.2916120511149599, -2.4620193825305208 -0.4341204441673218 C-2.436891307857983 -0.5766288372196837, -2.398724197476343 -0.7190704323420553, -2.3492315519647726 -0.8550503583141675 C-2.2997389064532023 -0.9910302842862798, -2.23741691682232 -1.1246802223496328, -2.165063509461099 -1.2499999999999956 C-2.092710102099878 -1.3753197776503583, -2.00812685533824 -1.4961171729167695, -1.9151111077974488 -1.606969024216344 C-1.8220953602566576 -1.7178208755159183, -1.7178208755159263 -1.82209536025665, -1.6069690242163523 -1.9151111077974416 C-1.4961171729167784 -2.0081268553382334, -1.3753197776503672 -2.0927101020998724, -1.2500000000000047 -2.1650635094610937 C-1.1246802223496422 -2.237416916822315, -0.9910302842862897 -2.299738906453198, -0.8550503583141776 -2.3492315519647686 C-0.7190704323420656 -2.3987241974763394, -0.5766288372196942 -2.4368913078579806, -0.43412044416733236 -2.462019382530519 C-0.29161205111497057 -2.4871474572030574, -0.1447068147224489 -2.4999999999999996, -7.120580697431198e-15 -2.5 C0.14470681472243463 -2.5000000000000004, 0.29161205111495647 -2.487147457203059, 0.4341204441673183 -2.4620193825305217 C0.5766288372196802 -2.436891307857984, 0.7190704323420518 -2.3987241974763442, 0.8550503583141642 -2.349231551964774 C0.9910302842862766 -2.2997389064532037, 1.1246802223496295 -2.2374169168223212, 1.2499999999999925 -2.165063509461101 C1.3753197776503554 -2.0927101020998804, 1.4961171729167668 -2.008126855338242, 1.6069690242163412 -1.915111107797451 C1.7178208755159157 -1.82209536025666, 1.8220953602566472 -1.7178208755159294, 1.915111107797439 -1.6069690242163557 C2.0081268553382308 -1.496117172916782, 2.09271010209987 -1.3753197776503712, 2.1650635094610915 -1.2500000000000089 C2.237416916822313 -1.1246802223496466, 2.299738906453196 -0.9910302842862939, 2.3492315519647673 -0.855050358314182 C2.3987241974763385 -0.71907043234207, 2.4368913078579792 -0.5766288372196986, 2.462019382530518 -0.4341204441673369 C2.487147457203057 -0.29161205111497523, 2.4936698970884197 -0.07235340736123454, 2.5 -1.1714553645825241e-14 C2.5063301029115803 0.07235340736121111, 2.50633010291158 -0.07235340736122292, 2.5 0" stroke="#9370DB" stroke-width="2" fill="none" stroke-dasharray="0 0" style=""/></g></g></g></g></g></g><defs><filter id="my-svg-drop-shadow" height="130%" width="130%"><feDropShadow dx="4" dy="4" stdDeviation="0" flood-opacity="0.06" flood-color="#000000"/></filter></defs><defs><filter id="my-svg-drop-shadow-small" height="150%" width="150%"><feDropShadow dx="2" dy="2" stdDeviation="0" flood-opacity="0.06" flood-color="#000000"/></filter></defs></svg>